<?xml version="1.0" encoding="UTF-8" standalone="no"?><svg xmlns="http://www.w3.org/2000/svg" xmlns:xlink="http://www.w3.org/1999/xlink" contentScriptType="application/ecmascript" contentStyleType="text/css" height="1174px" preserveAspectRatio="none" style="width:759px;height:1174px;background:#FFFFFF;" version="1.1" viewBox="0 0 759 1174" width="759px" zoomAndPan="magnify"><defs><filter height="300%" id="f1xwnml7bjrmjs" width="300%" x="-1" y="-1"><feGaussianBlur result="blurOut" stdDeviation="2.0"/><feColorMatrix in="blurOut" result="blurOut2" type="matrix" values="0 0 0 0 0 0 0 0 0 0 0 0 0 0 0 0 0 0 .4 0"/><feOffset dx="4.0" dy="4.0" in="blurOut2" result="blurOut3"/><feBlend in="SourceGraphic" in2="blurOut3" mode="normal"/></filter></defs><g><rect fill="#FFA500" filter="url(#f1xwnml7bjrmjs)" height="37.6094" rx="12.5" ry="12.5" style="stroke:#A80036;stroke-width:1.5;" width="144" x="10" y="567.2891"/><text fill="#000000" font-family="sans-serif" font-size="14" lengthAdjust="spacing" textLength="120" x="20" y="591.8223">Fundamentos Java</text><rect fill="#00FF00" filter="url(#f1xwnml7bjrmjs)" height="37.6094" rx="12.5" ry="12.5" style="stroke:#A80036;stroke-width:1.5;" width="83" x="204" y="250.4375"/><text fill="#000000" font-family="sans-serif" font-size="14" lengthAdjust="spacing" textLength="59" x="214" y="274.9707">Variables</text><rect fill="#008B8B" filter="url(#f1xwnml7bjrmjs)" height="37.6094" rx="12.5" ry="12.5" style="stroke:#A80036;stroke-width:1.5;" width="124" x="337" y="164.0234"/><text fill="#000000" font-family="sans-serif" font-size="14" lengthAdjust="spacing" textLength="96" x="347" y="188.5566">Tipos de Datos</text><rect fill="#FF7F50" filter="url(#f1xwnml7bjrmjs)" height="37.6094" rx="12.5" ry="12.5" style="stroke:#A80036;stroke-width:1.5;" width="62" x="511" y="20"/><text fill="#000000" font-family="sans-serif" font-size="14" lengthAdjust="spacing" textLength="42" x="521" y="44.5332">Textos</text><path d="M461,182.8281 L471,182.8281 C486,182.8281 486,38.8047 501,38.8047 L511,38.8047 " fill="none" style="stroke:#A80036;stroke-width:1.0;"/><rect fill="#FF7F50" filter="url(#f1xwnml7bjrmjs)" height="37.6094" rx="12.5" ry="12.5" style="stroke:#A80036;stroke-width:1.5;" width="80" x="511" y="77.6094"/><text fill="#000000" font-family="sans-serif" font-size="14" lengthAdjust="spacing" textLength="56" x="521" y="102.1426">Números</text><path d="M461,182.8281 L471,182.8281 C486,182.8281 486,96.4141 501,96.4141 L511,96.4141 " fill="none" style="stroke:#A80036;stroke-width:1.0;"/><rect fill="#FF7F50" filter="url(#f1xwnml7bjrmjs)" height="37.6094" rx="12.5" ry="12.5" style="stroke:#A80036;stroke-width:1.5;" width="95" x="511" y="135.2188"/><text fill="#000000" font-family="sans-serif" font-size="14" lengthAdjust="spacing" textLength="67" x="521" y="159.752">Booleanos</text><path d="M461,182.8281 L471,182.8281 C486,182.8281 486,154.0234 501,154.0234 L511,154.0234 " fill="none" style="stroke:#A80036;stroke-width:1.0;"/><rect fill="#FF7F50" filter="url(#f1xwnml7bjrmjs)" height="37.6094" rx="12.5" ry="12.5" style="stroke:#A80036;stroke-width:1.5;" width="109" x="511" y="192.8281"/><text fill="#000000" font-family="sans-serif" font-size="14" lengthAdjust="spacing" textLength="77" x="521" y="217.3613">Colecciones</text><rect fill="#9400D3" filter="url(#f1xwnml7bjrmjs)" height="37.6094" rx="12.5" ry="12.5" style="stroke:#A80036;stroke-width:1.5;" width="61" x="670" y="106.4141"/><text fill="#000000" font-family="sans-serif" font-size="14" lengthAdjust="spacing" textLength="37" x="680" y="130.9473">Listas</text><path d="M620,211.6328 L630,211.6328 C645,211.6328 645,125.2188 660,125.2188 L670,125.2188 " fill="none" style="stroke:#A80036;stroke-width:1.0;"/><rect fill="#9400D3" filter="url(#f1xwnml7bjrmjs)" height="37.6094" rx="12.5" ry="12.5" style="stroke:#A80036;stroke-width:1.5;" width="56" x="670" y="164.0234"/><text fill="#000000" font-family="sans-serif" font-size="14" lengthAdjust="spacing" textLength="28" x="680" y="188.5566">Sets</text><path d="M620,211.6328 L630,211.6328 C645,211.6328 645,182.8281 660,182.8281 L670,182.8281 " fill="none" style="stroke:#A80036;stroke-width:1.0;"/><rect fill="#9400D3" filter="url(#f1xwnml7bjrmjs)" height="37.6094" rx="12.5" ry="12.5" style="stroke:#A80036;stroke-width:1.5;" width="64" x="670" y="221.6328"/><text fill="#000000" font-family="sans-serif" font-size="14" lengthAdjust="spacing" textLength="36" x="680" y="246.166">Colas</text><path d="M620,211.6328 L630,211.6328 C645,211.6328 645,240.4375 660,240.4375 L670,240.4375 " fill="none" style="stroke:#A80036;stroke-width:1.0;"/><rect fill="#9400D3" filter="url(#f1xwnml7bjrmjs)" height="37.6094" rx="12.5" ry="12.5" style="stroke:#A80036;stroke-width:1.5;" width="70" x="670" y="279.2422"/><text fill="#000000" font-family="sans-serif" font-size="14" lengthAdjust="spacing" textLength="42" x="680" y="303.7754">Mapas</text><path d="M620,211.6328 L630,211.6328 C645,211.6328 645,298.0469 660,298.0469 L670,298.0469 " fill="none" style="stroke:#A80036;stroke-width:1.0;"/><path d="M461,182.8281 L471,182.8281 C486,182.8281 486,211.6328 501,211.6328 L511,211.6328 " fill="none" style="stroke:#A80036;stroke-width:1.0;"/><rect fill="#FF7F50" filter="url(#f1xwnml7bjrmjs)" height="37.6094" rx="12.5" ry="12.5" style="stroke:#A80036;stroke-width:1.5;" width="75" x="511" y="250.4375"/><text fill="#000000" font-family="sans-serif" font-size="14" lengthAdjust="spacing" textLength="47" x="521" y="274.9707">Fechas</text><path d="M461,182.8281 L471,182.8281 C486,182.8281 486,269.2422 501,269.2422 L511,269.2422 " fill="none" style="stroke:#A80036;stroke-width:1.0;"/><rect fill="#FF7F50" filter="url(#f1xwnml7bjrmjs)" height="37.6094" rx="12.5" ry="12.5" style="stroke:#A80036;stroke-width:1.5;" width="75" x="511" y="308.0469"/><text fill="#000000" font-family="sans-serif" font-size="14" lengthAdjust="spacing" textLength="43" x="521" y="332.5801">Clases</text><path d="M461,182.8281 L471,182.8281 C486,182.8281 486,326.8516 501,326.8516 L511,326.8516 " fill="none" style="stroke:#A80036;stroke-width:1.0;"/><path d="M287,269.2422 L297,269.2422 C312,269.2422 312,182.8281 327,182.8281 L337,182.8281 " fill="none" style="stroke:#A80036;stroke-width:1.0;"/><rect fill="#008B8B" filter="url(#f1xwnml7bjrmjs)" height="37.6094" rx="12.5" ry="12.5" style="stroke:#A80036;stroke-width:1.5;" width="82" x="337" y="423.2656"/><text fill="#000000" font-family="sans-serif" font-size="14" lengthAdjust="spacing" textLength="50" x="347" y="447.7988">Alcance</text><rect fill="#FF7F50" filter="url(#f1xwnml7bjrmjs)" height="37.6094" rx="12.5" ry="12.5" style="stroke:#A80036;stroke-width:1.5;" width="163" x="469" y="365.6563"/><text fill="#000000" font-family="sans-serif" font-size="14" lengthAdjust="spacing" textLength="139" x="479" y="390.1895">Variables de Instancia</text><path d="M419,442.0703 L429,442.0703 C444,442.0703 444,384.4609 459,384.4609 L469,384.4609 " fill="none" style="stroke:#A80036;stroke-width:1.0;"/><rect fill="#FF7F50" filter="url(#f1xwnml7bjrmjs)" height="37.6094" rx="12.5" ry="12.5" style="stroke:#A80036;stroke-width:1.5;" width="143" x="469" y="423.2656"/><text fill="#000000" font-family="sans-serif" font-size="14" lengthAdjust="spacing" textLength="119" x="479" y="447.7988">Variables de Clase</text><path d="M419,442.0703 L429,442.0703 C444,442.0703 444,442.0703 459,442.0703 L469,442.0703 " fill="none" style="stroke:#A80036;stroke-width:1.0;"/><rect fill="#FF7F50" filter="url(#f1xwnml7bjrmjs)" height="37.6094" rx="12.5" ry="12.5" style="stroke:#A80036;stroke-width:1.5;" width="136" x="469" y="480.875"/><text fill="#000000" font-family="sans-serif" font-size="14" lengthAdjust="spacing" textLength="112" x="479" y="505.4082">Variables Locales</text><path d="M419,442.0703 L429,442.0703 C444,442.0703 444,499.6797 459,499.6797 L469,499.6797 " fill="none" style="stroke:#A80036;stroke-width:1.0;"/><path d="M287,269.2422 L297,269.2422 C312,269.2422 312,442.0703 327,442.0703 L337,442.0703 " fill="none" style="stroke:#A80036;stroke-width:1.0;"/><path d="M154,586.0938 L164,586.0938 C179,586.0938 179,269.2422 194,269.2422 L204,269.2422 " fill="none" style="stroke:#A80036;stroke-width:1.0;"/><rect fill="#00FF00" filter="url(#f1xwnml7bjrmjs)" height="37.6094" rx="12.5" ry="12.5" style="stroke:#A80036;stroke-width:1.5;" width="113" x="204" y="596.0938"/><text fill="#000000" font-family="sans-serif" font-size="14" lengthAdjust="spacing" textLength="89" x="214" y="620.627">Condicionales</text><rect fill="#008B8B" filter="url(#f1xwnml7bjrmjs)" height="37.6094" rx="12.5" ry="12.5" style="stroke:#A80036;stroke-width:1.5;" width="61" x="367" y="538.4844"/><text fill="#000000" font-family="sans-serif" font-size="14" lengthAdjust="spacing" textLength="37" x="377" y="563.0176">if else</text><path d="M317,614.8984 L327,614.8984 C342,614.8984 342,557.2891 357,557.2891 L367,557.2891 " fill="none" style="stroke:#A80036;stroke-width:1.0;"/><rect fill="#008B8B" filter="url(#f1xwnml7bjrmjs)" height="37.6094" rx="12.5" ry="12.5" style="stroke:#A80036;stroke-width:1.5;" width="62" x="367" y="596.0938"/><text fill="#000000" font-family="sans-serif" font-size="14" lengthAdjust="spacing" textLength="38" x="377" y="620.627">switch</text><path d="M317,614.8984 L327,614.8984 C342,614.8984 342,614.8984 357,614.8984 L367,614.8984 " fill="none" style="stroke:#A80036;stroke-width:1.0;"/><rect fill="#008B8B" filter="url(#f1xwnml7bjrmjs)" height="37.6094" rx="12.5" ry="12.5" style="stroke:#A80036;stroke-width:1.5;" width="135" x="367" y="653.7031"/><text fill="#000000" font-family="sans-serif" font-size="14" lengthAdjust="spacing" textLength="111" x="377" y="678.2363">operador ternario</text><path d="M317,614.8984 L327,614.8984 C342,614.8984 342,672.5078 357,672.5078 L367,672.5078 " fill="none" style="stroke:#A80036;stroke-width:1.0;"/><path d="M154,586.0938 L164,586.0938 C179,586.0938 179,614.8984 194,614.8984 L204,614.8984 " fill="none" style="stroke:#A80036;stroke-width:1.0;"/><rect fill="#00FF00" filter="url(#f1xwnml7bjrmjs)" height="37.6094" rx="12.5" ry="12.5" style="stroke:#A80036;stroke-width:1.5;" width="115" x="204" y="740.1172"/><text fill="#000000" font-family="sans-serif" font-size="14" lengthAdjust="spacing" textLength="95" x="214" y="764.6504">Bucles (Loops)</text><rect fill="#008B8B" filter="url(#f1xwnml7bjrmjs)" height="37.6094" rx="12.5" ry="12.5" style="stroke:#A80036;stroke-width:1.5;" width="55" x="369" y="711.3125"/><text fill="#000000" font-family="sans-serif" font-size="14" lengthAdjust="spacing" textLength="31" x="379" y="735.8457">while</text><path d="M319,758.9219 L329,758.9219 C344,758.9219 344,730.1172 359,730.1172 L369,730.1172 " fill="none" style="stroke:#A80036;stroke-width:1.0;"/><rect fill="#008B8B" filter="url(#f1xwnml7bjrmjs)" height="37.6094" rx="12.5" ry="12.5" style="stroke:#A80036;stroke-width:1.5;" width="77" x="369" y="768.9219"/><text fill="#000000" font-family="sans-serif" font-size="14" lengthAdjust="spacing" textLength="17" x="379" y="793.4551">for</text><path d="M319,758.9219 L329,758.9219 C344,758.9219 344,787.7266 359,787.7266 L369,787.7266 " fill="none" style="stroke:#A80036;stroke-width:1.0;"/><path d="M154,586.0938 L164,586.0938 C179,586.0938 179,758.9219 194,758.9219 L204,758.9219 " fill="none" style="stroke:#A80036;stroke-width:1.0;"/><rect fill="#00FF00" filter="url(#f1xwnml7bjrmjs)" height="37.6094" rx="12.5" ry="12.5" style="stroke:#A80036;stroke-width:1.5;" width="59" x="204" y="912.9453"/><text fill="#000000" font-family="sans-serif" font-size="14" lengthAdjust="spacing" textLength="31" x="214" y="937.4785">POO</text><rect fill="#008B8B" filter="url(#f1xwnml7bjrmjs)" height="37.6094" rx="12.5" ry="12.5" style="stroke:#A80036;stroke-width:1.5;" width="67" x="313" y="855.3359"/><text fill="#000000" font-family="sans-serif" font-size="14" lengthAdjust="spacing" textLength="43" x="323" y="879.8691">Clases</text><rect fill="#FF7F50" filter="url(#f1xwnml7bjrmjs)" height="37.6094" rx="12.5" ry="12.5" style="stroke:#A80036;stroke-width:1.5;" width="80" x="430" y="826.5313"/><text fill="#000000" font-family="sans-serif" font-size="14" lengthAdjust="spacing" textLength="56" x="440" y="851.0645">Atributos</text><path d="M380,874.1406 L390,874.1406 C405,874.1406 405,845.3359 420,845.3359 L430,845.3359 " fill="none" style="stroke:#A80036;stroke-width:1.0;"/><rect fill="#FF7F50" filter="url(#f1xwnml7bjrmjs)" height="37.6094" rx="12.5" ry="12.5" style="stroke:#A80036;stroke-width:1.5;" width="78" x="430" y="884.1406"/><text fill="#000000" font-family="sans-serif" font-size="14" lengthAdjust="spacing" textLength="54" x="440" y="908.6738">Métodos</text><rect fill="#9400D3" filter="url(#f1xwnml7bjrmjs)" height="37.6094" rx="12.5" ry="12.5" style="stroke:#A80036;stroke-width:1.5;" width="105" x="558" y="884.1406"/><text fill="#000000" font-family="sans-serif" font-size="14" lengthAdjust="spacing" textLength="73" x="568" y="908.6738">Parámetros</text><path d="M508,902.9453 L518,902.9453 C533,902.9453 533,902.9453 548,902.9453 L558,902.9453 " fill="none" style="stroke:#A80036;stroke-width:1.0;"/><path d="M380,874.1406 L390,874.1406 C405,874.1406 405,902.9453 420,902.9453 L430,902.9453 " fill="none" style="stroke:#A80036;stroke-width:1.0;"/><path d="M263,931.75 L273,931.75 C288,931.75 288,874.1406 303,874.1406 L313,874.1406 " fill="none" style="stroke:#A80036;stroke-width:1.0;"/><rect fill="#008B8B" filter="url(#f1xwnml7bjrmjs)" height="37.6094" rx="12.5" ry="12.5" style="stroke:#A80036;stroke-width:1.5;" width="94" x="313" y="941.75"/><text fill="#000000" font-family="sans-serif" font-size="14" lengthAdjust="spacing" textLength="62" x="323" y="966.2832">Interfaces</text><path d="M263,931.75 L273,931.75 C288,931.75 288,960.5547 303,960.5547 L313,960.5547 " fill="none" style="stroke:#A80036;stroke-width:1.0;"/><rect fill="#008B8B" filter="url(#f1xwnml7bjrmjs)" height="37.6094" rx="12.5" ry="12.5" style="stroke:#A80036;stroke-width:1.5;" width="84" x="313" y="999.3594"/><text fill="#000000" font-family="sans-serif" font-size="14" lengthAdjust="spacing" textLength="56" x="323" y="1023.8926">Herencia</text><path d="M263,931.75 L273,931.75 C288,931.75 288,1018.1641 303,1018.1641 L313,1018.1641 " fill="none" style="stroke:#A80036;stroke-width:1.0;"/><path d="M154,586.0938 L164,586.0938 C179,586.0938 179,931.75 194,931.75 L204,931.75 " fill="none" style="stroke:#A80036;stroke-width:1.0;"/><rect fill="#00FF00" filter="url(#f1xwnml7bjrmjs)" height="37.6094" rx="12.5" ry="12.5" style="stroke:#A80036;stroke-width:1.5;" width="107" x="204" y="1056.9688"/><text fill="#000000" font-family="sans-serif" font-size="14" lengthAdjust="spacing" textLength="79" x="214" y="1081.502">Excepciones</text><path d="M154,586.0938 L164,586.0938 C179,586.0938 179,1075.7734 194,1075.7734 L204,1075.7734 " fill="none" style="stroke:#A80036;stroke-width:1.0;"/><rect fill="#00FF00" filter="url(#f1xwnml7bjrmjs)" height="37.6094" rx="12.5" ry="12.5" style="stroke:#A80036;stroke-width:1.5;" width="104" x="204" y="1114.5781"/><text fill="#000000" font-family="sans-serif" font-size="14" lengthAdjust="spacing" textLength="80" x="214" y="1139.1113">Comentarios</text><path d="M154,586.0938 L164,586.0938 C179,586.0938 179,1133.3828 194,1133.3828 L204,1133.3828 " fill="none" style="stroke:#A80036;stroke-width:1.0;"/><!--MD5=[41dca2377a8f900faf1e57613bb7aaff]
@startmindmap 
*[#Orange] Fundamentos Java 
**[#Lime] Variables 
***[#DarkCyan] Tipos de Datos  
****[#Coral] Textos
****[#Coral] Números 
****[#Coral] Booleanos  
****[#Coral] Colecciones   
*****[#DarkViolet] Listas 
*****[#DarkViolet] Sets  
*****[#DarkViolet] Colas  
*****[#DarkViolet] Mapas  
****[#Coral] Fechas  
****[#Coral] Clases   
***[#DarkCyan] Alcance   
****[#Coral] Variables de Instancia 
****[#Coral] Variables de Clase 
****[#Coral] Variables Locales 
**[#Lime] Condicionales 
***[#DarkCyan] if else 
***[#DarkCyan] switch 
***[#DarkCyan] operador ternario 
**[#Lime] Bucles (Loops)
***[#DarkCyan] while 
***[#DarkCyan] for          
**[#Lime] POO  
***[#DarkCyan] Clases 
****[#Coral] Atributos 
****[#Coral] Métodos 
*****[#DarkViolet] Parámetros   
***[#DarkCyan] Interfaces   
***[#DarkCyan] Herencia  
**[#Lime] Excepciones  
**[#Lime] Comentarios 
@endmindmap 

PlantUML version 1.2022.0(Tue Jan 11 13:16:42 CLST 2022)
(GPL source distribution)
Java Runtime: Java(TM) SE Runtime Environment
JVM: Java HotSpot(TM) 64-Bit Server VM
Default Encoding: Cp1252
Language: en
Country: US
--></g></svg>