<?xml version="1.0" encoding="UTF-8" standalone="no"?><svg xmlns="http://www.w3.org/2000/svg" xmlns:xlink="http://www.w3.org/1999/xlink" contentScriptType="application/ecmascript" contentStyleType="text/css" height="979px" preserveAspectRatio="none" style="width:788px;height:979px;background:#FFFFFF;" version="1.1" viewBox="0 0 788 979" width="788px" zoomAndPan="magnify"><defs><filter height="300%" id="fqdyhw6513tn7" width="300%" x="-1" y="-1"><feGaussianBlur result="blurOut" stdDeviation="2.0"/><feColorMatrix in="blurOut" result="blurOut2" type="matrix" values="0 0 0 0 0 0 0 0 0 0 0 0 0 0 0 0 0 0 .4 0"/><feOffset dx="4.0" dy="4.0" in="blurOut2" result="blurOut3"/><feBlend in="SourceGraphic" in2="blurOut3" mode="normal"/></filter></defs><g><rect fill="#FFA500" filter="url(#fqdyhw6513tn7)" height="36.2969" rx="12.5" ry="12.5" style="stroke:#A80036;stroke-width:1.5;" width="150" x="10" y="470.375"/><text fill="#000000" font-family="sans-serif" font-size="14" lengthAdjust="spacing" textLength="126" x="20" y="493.3701">Fundamentos Java</text><rect fill="#00FF00" filter="url(#fqdyhw6513tn7)" height="36.2969" rx="12.5" ry="12.5" style="stroke:#A80036;stroke-width:1.5;" width="86" x="210" y="160.7422"/><text fill="#000000" font-family="sans-serif" font-size="14" lengthAdjust="spacing" textLength="62" x="220" y="183.7373">Variables</text><rect fill="#008B8B" filter="url(#fqdyhw6513tn7)" height="36.2969" rx="12.5" ry="12.5" style="stroke:#A80036;stroke-width:1.5;" width="133" x="346" y="160.7422"/><text fill="#000000" font-family="sans-serif" font-size="14" lengthAdjust="spacing" textLength="105" x="356" y="183.7373">Tipos de Datos</text><rect fill="#FF7F50" filter="url(#fqdyhw6513tn7)" height="36.2969" rx="12.5" ry="12.5" style="stroke:#A80036;stroke-width:1.5;" width="67" x="529" y="20"/><text fill="#000000" font-family="sans-serif" font-size="14" lengthAdjust="spacing" textLength="47" x="539" y="42.9951">Textos</text><path d="M479,178.8906 L489,178.8906 C504,178.8906 504,38.1484 519,38.1484 L529,38.1484 " fill="none" style="stroke:#A80036;stroke-width:1.0;"/><rect fill="#FF7F50" filter="url(#fqdyhw6513tn7)" height="36.2969" rx="12.5" ry="12.5" style="stroke:#A80036;stroke-width:1.5;" width="87" x="529" y="76.2969"/><text fill="#000000" font-family="sans-serif" font-size="14" lengthAdjust="spacing" textLength="63" x="539" y="99.292">Números</text><path d="M479,178.8906 L489,178.8906 C504,178.8906 504,94.4453 519,94.4453 L529,94.4453 " fill="none" style="stroke:#A80036;stroke-width:1.0;"/><rect fill="#FF7F50" filter="url(#fqdyhw6513tn7)" height="36.2969" rx="12.5" ry="12.5" style="stroke:#A80036;stroke-width:1.5;" width="102" x="529" y="132.5938"/><text fill="#000000" font-family="sans-serif" font-size="14" lengthAdjust="spacing" textLength="74" x="539" y="155.5889">Booleanos</text><path d="M479,178.8906 L489,178.8906 C504,178.8906 504,150.7422 519,150.7422 L529,150.7422 " fill="none" style="stroke:#A80036;stroke-width:1.0;"/><rect fill="#FF7F50" filter="url(#fqdyhw6513tn7)" height="36.2969" rx="12.5" ry="12.5" style="stroke:#A80036;stroke-width:1.5;" width="117" x="529" y="188.8906"/><text fill="#000000" font-family="sans-serif" font-size="14" lengthAdjust="spacing" textLength="85" x="539" y="211.8857">Colecciones</text><rect fill="#9400D3" filter="url(#fqdyhw6513tn7)" height="36.2969" rx="12.5" ry="12.5" style="stroke:#A80036;stroke-width:1.5;" width="63" x="696" y="104.4453"/><text fill="#000000" font-family="sans-serif" font-size="14" lengthAdjust="spacing" textLength="39" x="706" y="127.4404">Listas</text><path d="M646,207.0391 L656,207.0391 C671,207.0391 671,122.5938 686,122.5938 L696,122.5938 " fill="none" style="stroke:#A80036;stroke-width:1.0;"/><rect fill="#9400D3" filter="url(#fqdyhw6513tn7)" height="36.2969" rx="12.5" ry="12.5" style="stroke:#A80036;stroke-width:1.5;" width="59" x="696" y="160.7422"/><text fill="#000000" font-family="sans-serif" font-size="14" lengthAdjust="spacing" textLength="31" x="706" y="183.7373">Sets</text><path d="M646,207.0391 L656,207.0391 C671,207.0391 671,178.8906 686,178.8906 L696,178.8906 " fill="none" style="stroke:#A80036;stroke-width:1.0;"/><rect fill="#9400D3" filter="url(#fqdyhw6513tn7)" height="36.2969" rx="12.5" ry="12.5" style="stroke:#A80036;stroke-width:1.5;" width="66" x="696" y="217.0391"/><text fill="#000000" font-family="sans-serif" font-size="14" lengthAdjust="spacing" textLength="38" x="706" y="240.0342">Colas</text><path d="M646,207.0391 L656,207.0391 C671,207.0391 671,235.1875 686,235.1875 L696,235.1875 " fill="none" style="stroke:#A80036;stroke-width:1.0;"/><rect fill="#9400D3" filter="url(#fqdyhw6513tn7)" height="36.2969" rx="12.5" ry="12.5" style="stroke:#A80036;stroke-width:1.5;" width="73" x="696" y="273.3359"/><text fill="#000000" font-family="sans-serif" font-size="14" lengthAdjust="spacing" textLength="45" x="706" y="296.3311">Mapas</text><path d="M646,207.0391 L656,207.0391 C671,207.0391 671,291.4844 686,291.4844 L696,291.4844 " fill="none" style="stroke:#A80036;stroke-width:1.0;"/><path d="M479,178.8906 L489,178.8906 C504,178.8906 504,207.0391 519,207.0391 L529,207.0391 " fill="none" style="stroke:#A80036;stroke-width:1.0;"/><rect fill="#FF7F50" filter="url(#fqdyhw6513tn7)" height="36.2969" rx="12.5" ry="12.5" style="stroke:#A80036;stroke-width:1.5;" width="78" x="529" y="245.1875"/><text fill="#000000" font-family="sans-serif" font-size="14" lengthAdjust="spacing" textLength="50" x="539" y="268.1826">Fechas</text><path d="M479,178.8906 L489,178.8906 C504,178.8906 504,263.3359 519,263.3359 L529,263.3359 " fill="none" style="stroke:#A80036;stroke-width:1.0;"/><rect fill="#FF7F50" filter="url(#fqdyhw6513tn7)" height="36.2969" rx="12.5" ry="12.5" style="stroke:#A80036;stroke-width:1.5;" width="78" x="529" y="301.4844"/><text fill="#000000" font-family="sans-serif" font-size="14" lengthAdjust="spacing" textLength="46" x="539" y="324.4795">Clases</text><path d="M479,178.8906 L489,178.8906 C504,178.8906 504,319.6328 519,319.6328 L529,319.6328 " fill="none" style="stroke:#A80036;stroke-width:1.0;"/><path d="M296,178.8906 L306,178.8906 C321,178.8906 321,178.8906 336,178.8906 L346,178.8906 " fill="none" style="stroke:#A80036;stroke-width:1.0;"/><rect fill="#008B8B" filter="url(#fqdyhw6513tn7)" height="36.2969" rx="12.5" ry="12.5" style="stroke:#A80036;stroke-width:1.5;" width="86" x="346" y="217.0391"/><text fill="#000000" font-family="sans-serif" font-size="14" lengthAdjust="spacing" textLength="54" x="356" y="240.0342">Alcance</text><path d="M296,178.8906 L306,178.8906 C321,178.8906 321,235.1875 336,235.1875 L346,235.1875 " fill="none" style="stroke:#A80036;stroke-width:1.0;"/><path d="M160,488.5234 L170,488.5234 C185,488.5234 185,178.8906 200,178.8906 L210,178.8906 " fill="none" style="stroke:#A80036;stroke-width:1.0;"/><rect fill="#00FF00" filter="url(#fqdyhw6513tn7)" height="36.2969" rx="12.5" ry="12.5" style="stroke:#A80036;stroke-width:1.5;" width="121" x="210" y="414.0781"/><text fill="#000000" font-family="sans-serif" font-size="14" lengthAdjust="spacing" textLength="97" x="220" y="437.0732">Condicionales</text><rect fill="#008B8B" filter="url(#fqdyhw6513tn7)" height="36.2969" rx="12.5" ry="12.5" style="stroke:#A80036;stroke-width:1.5;" width="64" x="381" y="357.7813"/><text fill="#000000" font-family="sans-serif" font-size="14" lengthAdjust="spacing" textLength="40" x="391" y="380.7764">if else</text><path d="M331,432.2266 L341,432.2266 C356,432.2266 356,375.9297 371,375.9297 L381,375.9297 " fill="none" style="stroke:#A80036;stroke-width:1.0;"/><rect fill="#008B8B" filter="url(#fqdyhw6513tn7)" height="36.2969" rx="12.5" ry="12.5" style="stroke:#A80036;stroke-width:1.5;" width="68" x="381" y="414.0781"/><text fill="#000000" font-family="sans-serif" font-size="14" lengthAdjust="spacing" textLength="44" x="391" y="437.0732">switch</text><path d="M331,432.2266 L341,432.2266 C356,432.2266 356,432.2266 371,432.2266 L381,432.2266 " fill="none" style="stroke:#A80036;stroke-width:1.0;"/><rect fill="#008B8B" filter="url(#fqdyhw6513tn7)" height="36.2969" rx="12.5" ry="12.5" style="stroke:#A80036;stroke-width:1.5;" width="144" x="381" y="470.375"/><text fill="#000000" font-family="sans-serif" font-size="14" lengthAdjust="spacing" textLength="120" x="391" y="493.3701">operador ternario</text><path d="M331,432.2266 L341,432.2266 C356,432.2266 356,488.5234 371,488.5234 L381,488.5234 " fill="none" style="stroke:#A80036;stroke-width:1.0;"/><path d="M160,488.5234 L170,488.5234 C185,488.5234 185,432.2266 200,432.2266 L210,432.2266 " fill="none" style="stroke:#A80036;stroke-width:1.0;"/><rect fill="#00FF00" filter="url(#fqdyhw6513tn7)" height="36.2969" rx="12.5" ry="12.5" style="stroke:#A80036;stroke-width:1.5;" width="123" x="210" y="554.8203"/><text fill="#000000" font-family="sans-serif" font-size="14" lengthAdjust="spacing" textLength="103" x="220" y="577.8154">Bucles (Loops)</text><rect fill="#008B8B" filter="url(#fqdyhw6513tn7)" height="36.2969" rx="12.5" ry="12.5" style="stroke:#A80036;stroke-width:1.5;" width="59" x="383" y="526.6719"/><text fill="#000000" font-family="sans-serif" font-size="14" lengthAdjust="spacing" textLength="35" x="393" y="549.667">while</text><path d="M333,572.9688 L343,572.9688 C358,572.9688 358,544.8203 373,544.8203 L383,544.8203 " fill="none" style="stroke:#A80036;stroke-width:1.0;"/><rect fill="#008B8B" filter="url(#fqdyhw6513tn7)" height="36.2969" rx="12.5" ry="12.5" style="stroke:#A80036;stroke-width:1.5;" width="78" x="383" y="582.9688"/><text fill="#000000" font-family="sans-serif" font-size="14" lengthAdjust="spacing" textLength="18" x="393" y="605.9639">for</text><path d="M333,572.9688 L343,572.9688 C358,572.9688 358,601.1172 373,601.1172 L383,601.1172 " fill="none" style="stroke:#A80036;stroke-width:1.0;"/><path d="M160,488.5234 L170,488.5234 C185,488.5234 185,572.9688 200,572.9688 L210,572.9688 " fill="none" style="stroke:#A80036;stroke-width:1.0;"/><rect fill="#00FF00" filter="url(#fqdyhw6513tn7)" height="36.2969" rx="12.5" ry="12.5" style="stroke:#A80036;stroke-width:1.5;" width="59" x="210" y="723.7109"/><text fill="#000000" font-family="sans-serif" font-size="14" lengthAdjust="spacing" textLength="31" x="220" y="746.7061">POO</text><rect fill="#008B8B" filter="url(#fqdyhw6513tn7)" height="36.2969" rx="12.5" ry="12.5" style="stroke:#A80036;stroke-width:1.5;" width="70" x="319" y="667.4141"/><text fill="#000000" font-family="sans-serif" font-size="14" lengthAdjust="spacing" textLength="46" x="329" y="690.4092">Clases</text><rect fill="#FF7F50" filter="url(#fqdyhw6513tn7)" height="36.2969" rx="12.5" ry="12.5" style="stroke:#A80036;stroke-width:1.5;" width="86" x="439" y="639.2656"/><text fill="#000000" font-family="sans-serif" font-size="14" lengthAdjust="spacing" textLength="62" x="449" y="662.2607">Atributos</text><path d="M389,685.5625 L399,685.5625 C414,685.5625 414,657.4141 429,657.4141 L439,657.4141 " fill="none" style="stroke:#A80036;stroke-width:1.0;"/><rect fill="#FF7F50" filter="url(#fqdyhw6513tn7)" height="36.2969" rx="12.5" ry="12.5" style="stroke:#A80036;stroke-width:1.5;" width="85" x="439" y="695.5625"/><text fill="#000000" font-family="sans-serif" font-size="14" lengthAdjust="spacing" textLength="61" x="449" y="718.5576">Métodos</text><rect fill="#9400D3" filter="url(#fqdyhw6513tn7)" height="36.2969" rx="12.5" ry="12.5" style="stroke:#A80036;stroke-width:1.5;" width="111" x="574" y="695.5625"/><text fill="#000000" font-family="sans-serif" font-size="14" lengthAdjust="spacing" textLength="79" x="584" y="718.5576">Parámetros</text><path d="M524,713.7109 L534,713.7109 C549,713.7109 549,713.7109 564,713.7109 L574,713.7109 " fill="none" style="stroke:#A80036;stroke-width:1.0;"/><path d="M389,685.5625 L399,685.5625 C414,685.5625 414,713.7109 429,713.7109 L439,713.7109 " fill="none" style="stroke:#A80036;stroke-width:1.0;"/><path d="M269,741.8594 L279,741.8594 C294,741.8594 294,685.5625 309,685.5625 L319,685.5625 " fill="none" style="stroke:#A80036;stroke-width:1.0;"/><rect fill="#008B8B" filter="url(#fqdyhw6513tn7)" height="36.2969" rx="12.5" ry="12.5" style="stroke:#A80036;stroke-width:1.5;" width="100" x="319" y="751.8594"/><text fill="#000000" font-family="sans-serif" font-size="14" lengthAdjust="spacing" textLength="68" x="329" y="774.8545">Interfaces</text><path d="M269,741.8594 L279,741.8594 C294,741.8594 294,770.0078 309,770.0078 L319,770.0078 " fill="none" style="stroke:#A80036;stroke-width:1.0;"/><rect fill="#008B8B" filter="url(#fqdyhw6513tn7)" height="36.2969" rx="12.5" ry="12.5" style="stroke:#A80036;stroke-width:1.5;" width="89" x="319" y="808.1563"/><text fill="#000000" font-family="sans-serif" font-size="14" lengthAdjust="spacing" textLength="61" x="329" y="831.1514">Herencia</text><path d="M269,741.8594 L279,741.8594 C294,741.8594 294,826.3047 309,826.3047 L319,826.3047 " fill="none" style="stroke:#A80036;stroke-width:1.0;"/><path d="M160,488.5234 L170,488.5234 C185,488.5234 185,741.8594 200,741.8594 L210,741.8594 " fill="none" style="stroke:#A80036;stroke-width:1.0;"/><rect fill="#00FF00" filter="url(#fqdyhw6513tn7)" height="36.2969" rx="12.5" ry="12.5" style="stroke:#A80036;stroke-width:1.5;" width="116" x="210" y="864.4531"/><text fill="#000000" font-family="sans-serif" font-size="14" lengthAdjust="spacing" textLength="88" x="220" y="887.4482">Excepciones</text><path d="M160,488.5234 L170,488.5234 C185,488.5234 185,882.6016 200,882.6016 L210,882.6016 " fill="none" style="stroke:#A80036;stroke-width:1.0;"/><rect fill="#00FF00" filter="url(#fqdyhw6513tn7)" height="36.2969" rx="12.5" ry="12.5" style="stroke:#A80036;stroke-width:1.5;" width="112" x="210" y="920.75"/><text fill="#000000" font-family="sans-serif" font-size="14" lengthAdjust="spacing" textLength="88" x="220" y="943.7451">Comentarios</text><path d="M160,488.5234 L170,488.5234 C185,488.5234 185,938.8984 200,938.8984 L210,938.8984 " fill="none" style="stroke:#A80036;stroke-width:1.0;"/><!--MD5=[6b4ebb3e0591bf8c42d1bed73d874933]
@startmindmap 
*[#Orange] Fundamentos Java 
**[#Lime] Variables 
***[#DarkCyan] Tipos de Datos  
****[#Coral] Textos
****[#Coral] Números 
****[#Coral] Booleanos  
****[#Coral] Colecciones   
*****[#DarkViolet] Listas 
*****[#DarkViolet] Sets  
*****[#DarkViolet] Colas  
*****[#DarkViolet] Mapas  
****[#Coral] Fechas  
****[#Coral] Clases   
***[#DarkCyan] Alcance   
**[#Lime] Condicionales 
***[#DarkCyan] if else 
***[#DarkCyan] switch 
***[#DarkCyan] operador ternario 
**[#Lime] Bucles (Loops)
***[#DarkCyan] while 
***[#DarkCyan] for          
**[#Lime] POO  
***[#DarkCyan] Clases 
****[#Coral] Atributos 
****[#Coral] Métodos 
*****[#DarkViolet] Parámetros   
***[#DarkCyan] Interfaces   
***[#DarkCyan] Herencia  
**[#Lime] Excepciones  
**[#Lime] Comentarios 
@endmindmap 

PlantUML version 1.2022.0(Tue Jan 11 13:16:42 CLST 2022)
(GPL source distribution)
Java Runtime: OpenJDK Runtime Environment
JVM: OpenJDK 64-Bit Server VM
Default Encoding: UTF-8
Language: en
Country: US
--></g></svg>